<?xml version="1.0" encoding="UTF-8"?>
<!DOCTYPE svg PUBLIC "-//W3C//DTD SVG 1.1//EN" "http://www.w3.org/Graphics/SVG/1.1/DTD/svg11.dtd">
<!-- Creator: CorelDRAW X8 -->
<svg xmlns="http://www.w3.org/2000/svg" xml:space="preserve" width="619px" height="475px" version="1.1" style="shape-rendering:geometricPrecision; text-rendering:geometricPrecision; image-rendering:optimizeQuality; fill-rule:evenodd; clip-rule:evenodd"
viewBox="0 0 619 475"
 xmlns:xlink="http://www.w3.org/1999/xlink">
 <defs>
  <style type="text/css">
    g {fill:white;}
 </style>
 </defs>
 <g id="Layer_x0020_1">
  <metadata id="CorelCorpID_0Corel-Layer"/>
  <path class="fil0" d="M544 329c4,-2 14,-5 19,-5 -1,2 -9,11 -4,17 2,3 2,2 5,2 1,-17 29,-29 41,-46 20,-28 17,-73 -1,-104 -7,-12 -10,-15 -21,-23 -16,-11 -39,-18 -59,-17 -4,0 -8,1 -10,-1 14,-5 18,-9 38,-10 32,-1 27,11 36,12 5,-6 2,-8 -3,-12 2,-3 1,-1 5,-3l0 -5c-10,-7 -22,-6 -36,-5 1,-6 24,-8 18,-33 -7,2 -2,2 -7,3 4,-15 3,-15 1,-31 -11,3 -14,10 -19,19 -3,-6 -2,-6 -8,-9 -2,9 -1,10 -7,17 -5,5 -8,13 -9,22 -3,-2 -1,-17 -9,-32 -3,-5 -2,-6 -7,-7 -2,4 -1,3 -3,6l-3 6c-8,-6 -19,0 -9,4 5,3 4,0 7,5 9,12 7,31 2,45l-2 5c-1,1 -1,1 -2,2 -3,-3 -3,-6 -8,-7 -7,-2 -16,0 -22,6 -3,3 -3,5 -6,8 0,-4 1,-4 -2,-7 -3,1 -3,2 -5,5 -1,1 -2,2 -2,3 -3,3 -1,1 -5,3 1,-12 0,-19 -8,-23 -5,35 -19,38 -21,64 -10,-22 3,-40 -20,-51 8,-63 37,-53 37,-42 0,5 -3,6 -4,10 4,3 10,3 15,1 3,-1 4,-2 5,-4l3 -7c7,6 13,12 22,3 -1,-8 -14,-17 -19,-20 3,-1 7,2 8,-1 4,-7 -9,-12 -14,-13 -17,-2 -23,5 -35,8 6,-16 14,-19 29,-18 20,1 18,7 30,13 2,-8 -3,-14 -6,-20 12,3 23,4 29,-3 -2,-4 -6,-9 -11,-11l-18 -5c7,-3 14,-9 15,-19 -11,-2 -13,0 -24,2 1,-3 5,-14 4,-16 -6,-8 -22,8 -26,10 1,-8 0,-17 -5,-19 -7,-3 -13,3 -16,6 -6,-2 -14,-4 -9,4 1,3 2,3 3,6 8,24 -6,49 -13,71 -3,9 -6,18 -9,26 -4,-16 -10,-35 -7,-52 2,-8 4,-10 6,-15 -10,-6 -11,9 -17,12 -1,0 -2,-11 -4,-15 -2,-6 -7,-10 -12,-13 -5,-2 -6,-3 -12,-3 -10,-1 -10,1 -5,12 -7,-1 -12,-9 -20,-9 -8,0 -12,2 -18,4l9 15c2,3 4,4 6,6l7 5c-4,8 -5,8 -4,20 19,-2 15,-11 38,7 6,6 17,24 16,37 -4,4 -8,4 -9,11 0,6 2,13 3,19 -5,-2 -7,-6 -10,-10 -6,-7 -11,-15 -13,-24 -3,-9 1,-10 8,-11 0,-10 -6,-9 -10,-14 -1,-3 -1,-3 -4,-5 -3,-2 -9,-1 -12,1 -4,4 -4,8 -3,14 -8,1 -9,4 -11,11 -5,-10 -5,-9 -13,-16 -6,-5 -4,-14 -5,-24 -11,0 -14,6 -17,15 -4,-2 -7,-7 -8,-12 -2,-10 1,-10 2,-18 -4,-1 -8,-2 -11,0 -3,2 -3,4 -5,6l-3 3c-3,-18 -4,-19 2,-34 6,0 8,5 14,3 16,-3 8,-30 -11,-27 -27,4 -26,32 -22,51 -4,-1 -10,-10 -16,-11 4,20 15,34 30,46 -24,-10 -37,-37 -53,-61 -1,-2 -16,-18 -19,-19 -3,9 1,13 1,20 -5,-1 -8,-8 -15,-11 -4,-1 -6,-2 -10,-3 -5,-3 -3,-4 -7,-6 -8,16 15,52 29,58 2,1 0,-1 3,2 1,1 0,0 1,2 -4,0 -2,0 -4,-2 -19,-4 -41,3 -42,19 8,1 6,-1 16,1 -1,2 -6,6 -10,12 -2,5 -4,9 -5,17 10,-1 22,-4 28,-4 3,3 3,6 8,8 1,-3 1,-7 2,-9 1,-3 3,-5 6,-7 15,-11 40,-12 58,-7 -14,1 -9,-1 -21,5 -9,4 -10,2 -16,10 -12,17 4,24 5,26 2,4 1,6 7,6 4,-7 -2,-11 8,-16 6,-4 16,-4 23,-2 15,4 27,8 36,-8 0,0 0,0 0,0 7,0 29,7 41,17 -16,-1 -29,-2 -45,1 -23,4 -55,19 -78,13 -22,-5 -20,-15 -24,-23 0,0 -1,0 -1,1 -1,5 -13,5 -11,21 1,14 9,14 16,19 -3,8 2,7 7,13 -29,17 -60,15 -58,-4 -20,10 -4,26 6,30 -18,3 -34,-10 -38,-25 -2,-8 0,-13 8,-13 0,0 0,0 0,1l1 4c8,0 12,-6 9,-13 -4,-8 -8,-7 -13,-12 1,-3 4,-7 4,-11 0,-4 0,3 0,-1 -2,-7 -16,1 -19,4 -4,4 -1,4 -7,5 -2,-3 -2,-5 -5,-8 -5,10 -10,15 -9,28 1,19 9,19 11,26 -9,-3 -37,-37 -12,-57 -1,-8 -7,-9 -16,-10 0,-9 3,-18 -4,-25 -10,4 -9,13 -14,16l-4 -6c-4,2 -8,9 -9,14 -2,6 2,17 1,19 -3,-3 -8,-11 -13,-6 -2,2 -1,2 0,5 6,16 -4,6 14,35 3,6 3,6 8,9 -4,3 -2,-1 -3,3 2,3 11,9 15,11 9,6 39,13 51,14l12 1c1,0 1,0 1,1 -17,5 -31,0 -49,-4 -8,-3 -16,-3 -24,-5 -9,-1 -11,-9 -17,-12 -6,10 -3,20 9,23 -1,2 -3,3 -5,4 -5,4 -9,12 -9,19 12,4 18,4 29,0 0,4 -2,8 0,11 1,2 1,2 3,3 1,0 2,0 2,1 6,2 3,5 9,9 3,2 6,2 10,1 -3,-9 -10,-21 12,-29 13,-4 28,-2 39,-10l-1 2c-6,6 -11,16 -9,25 1,10 10,16 19,19 -1,-7 -4,-11 -3,-19 1,-7 5,-12 8,-17 9,-12 21,-20 23,-23 -8,19 -10,17 -15,42 -1,6 -3,18 -5,23 -5,8 -10,9 -15,14 6,18 14,14 26,8 1,6 2,13 3,19 0,5 -2,8 -3,13l0 3c1,5 7,2 9,-1 3,-3 3,-6 5,-9 6,8 9,11 22,14 12,2 19,6 32,4 15,-2 19,-1 29,-8 21,-15 15,-5 27,-4 3,-5 5,-10 1,-16 -3,-6 -10,-5 -17,-3 6,-4 14,-18 11,-26 -3,-2 -9,5 -13,7 6,-16 -2,-37 -13,-16 -3,6 -5,11 -5,19 -5,-2 -5,-9 -14,-7 -5,1 -11,5 -13,9l4 2c9,2 13,10 9,17 -5,9 -23,5 -30,0 4,-4 11,-6 10,-16 -11,1 -19,3 -30,-12 -6,-8 -10,-22 -9,-35 3,6 2,10 7,16 19,27 42,4 30,-11 -2,1 -13,10 -21,-8 -12,-26 4,-51 34,-64 -2,4 -5,6 -7,11 -2,5 -3,9 -5,14 -4,14 -9,13 -14,22 10,14 21,-4 22,-5 1,8 2,20 6,25 10,-3 9,-19 14,-25 7,17 6,17 18,28 3,3 10,6 17,6 12,0 9,-8 9,-9 7,2 17,3 25,-4 10,-9 10,-28 -2,-33 -8,-3 -17,3 -15,7 4,3 7,0 10,5 6,11 -9,25 -20,16 -11,-2 -22,-44 -17,-59 4,9 10,28 28,19 -11,-6 -18,-23 -3,-35 22,-18 74,-19 97,8 -12,-3 -60,-26 -75,-3 0,1 0,0 1,1l2 0c0,0 2,0 3,0 -2,4 -11,9 -14,22 11,7 22,-3 23,-3l0 16c5,0 14,-4 19,-5 1,10 7,12 17,14 0,-3 -4,-21 19,-15 20,6 36,31 43,48 3,7 3,10 1,14 -4,-3 -21,-43 -53,-39 -14,2 -16,12 -19,12 -1,0 -17,-7 -28,16 -5,10 -10,24 -19,27 1,-3 1,-4 0,-7 -4,-3 -12,-5 -13,3 -2,14 31,18 41,12 3,-2 1,-13 5,-15 2,9 9,22 15,28 3,3 3,4 5,6 5,-1 5,-3 7,-10 2,-6 -4,-12 -4,-19 3,4 20,13 31,1 10,-14 -8,-19 -11,-19l-2 7c-6,1 -9,1 -12,-3 -9,-12 -5,-28 16,-26 11,1 15,6 20,12 5,6 10,13 13,21 2,3 3,8 3,13 -7,-3 -17,-6 -21,7 16,1 19,3 28,14 7,7 19,14 25,20 10,11 25,52 26,65 -15,12 -2,38 18,31 15,-6 15,-29 0,-34 -1,-1 -2,-1 -3,-1l-2 -1c0,0 0,0 -1,0 0,0 0,0 0,-1l-1 -16 -3 1c0,0 0,0 -1,0 0,0 0,0 0,-1 0,-10 1,-21 5,-30 4,-10 9,-13 19,-16l-4 -3c-12,-5 -25,-1 -29,12l-2 5c0,0 0,0 0,1l-14 -28c-2,-4 -3,-12 -1,-17 2,-4 5,-4 9,-6l4 -3c-2,-3 -6,-5 -12,-5 -9,0 -3,-4 -13,-1 -1,-11 4,-35 6,-46 3,-18 22,-54 43,-59 12,-3 27,-9 27,19 -6,-3 -16,-9 -15,5 1,20 23,18 33,8 5,-5 7,-13 5,-22 0,0 0,0 0,0 1,0 1,0 1,0 1,-1 2,-1 3,-3 1,-2 1,-5 1,-7 -3,-13 -30,-18 -40,-17 12,-7 38,-6 45,0 10,8 1,25 16,25 10,-7 4,-21 -1,-27 14,4 21,31 13,41 -7,9 -16,8 -13,-1 2,-6 2,0 3,-6 -9,-6 -18,1 -17,14 3,20 34,19 42,-5 5,-13 2,-21 -2,-31 5,9 11,15 6,37 -3,11 -11,20 -23,22 1,7 2,6 6,9 -8,5 -13,15 -13,24 7,1 9,0 15,-1l-2 10c6,1 12,-2 15,-4 8,-5 7,-7 12,-10 0,2 1,4 2,6 2,3 2,3 6,4 -4,-32 4,-28 5,-40 1,-6 2,-11 3,-18 2,4 4,13 3,18 -3,16 4,30 -13,49 -22,24 -42,8 -44,7 -4,13 0,16 13,21 -4,1 -19,7 -25,7 -30,2 -33,-39 -13,-41 3,2 2,-1 3,4l-4 1c-7,1 -9,9 -5,13 5,5 14,3 16,-3 4,-9 7,-8 5,-17 -2,-7 -7,-10 -12,-12 1,-2 0,-1 1,-2 1,-1 1,-1 2,-2 2,-1 2,-1 4,-3 1,-1 2,-2 3,-4 2,-3 1,-1 2,-5 -8,-3 -11,-2 -20,-1 3,-4 7,-3 6,-12 -8,-1 -17,8 -20,11 -7,6 -9,11 -12,20 -3,-9 -3,-18 -7,-27 -2,-6 -10,-16 -17,-17l2 12c-11,-2 -7,-9 -26,-7 0,18 7,18 12,23l-6 0c-16,-4 -17,11 -14,14l8 0c7,0 12,5 17,11 11,15 19,30 32,39 4,3 7,5 11,7 4,2 9,4 13,6 -6,3 -7,1 -11,8 -2,4 -3,10 3,13 2,-3 1,-4 5,-8 2,-2 4,-3 7,-6 5,-3 11,-6 18,-7z"/>
  <path class="fil1" d="M151 416c0,16 -5,30 -16,41 -9,11 -21,16 -38,17 -3,0 -12,0 -26,0 -2,0 -6,0 -12,0 -5,0 -9,-1 -12,-1 -1,0 -2,0 -2,-1 0,-6 0,-15 1,-27 0,-12 0,-21 0,-27 0,-6 0,-16 0,-28 -1,-13 -1,-22 -1,-28 0,-1 1,-2 2,-2 4,-1 10,-1 19,-1 17,0 28,0 33,1 12,1 23,4 30,10 7,4 12,11 16,20 4,8 6,17 6,26zm-31 0c0,-9 -3,-17 -9,-23 -5,-6 -13,-9 -22,-9 -8,0 -12,1 -12,4 0,3 0,8 0,14 0,6 0,11 0,14 0,4 0,8 0,15 0,6 0,11 0,14 0,2 4,3 13,3 9,0 17,-3 22,-9 5,-6 8,-14 8,-23z"/>
  <path class="fil1" d="M589 472c0,1 -1,1 -2,1 -2,0 -7,0 -15,0 -8,0 -12,0 -15,0 -1,0 -2,0 -2,0 0,-1 -1,-1 -1,-2 -1,-2 -2,-5 -4,-9 -2,-6 -5,-14 -10,-25 -1,-2 -3,-3 -6,-3 1,0 -2,0 -9,0 -1,0 -1,2 -1,4 0,4 0,10 1,17 1,7 1,13 1,16 0,1 0,2 -1,2 0,0 -1,0 -2,0 -3,0 -8,0 -15,0 -8,0 -12,0 -14,0 -2,0 -2,-1 -2,-3 0,-5 0,-15 0,-27 1,-12 1,-21 1,-27 0,-23 0,-41 -1,-53l0 -2c0,0 1,-1 2,-1 2,-1 10,-1 25,-1 10,-1 18,-1 24,-1 13,0 23,3 30,9 9,6 14,15 14,27 0,8 -1,14 -4,19 -2,5 -6,9 -12,14 -2,1 -2,1 -2,2 0,0 3,7 10,21 6,13 10,21 10,22zm-34 -73c0,-7 -3,-11 -7,-14 -3,-2 -9,-3 -16,-3 -5,0 -8,1 -8,3 0,2 0,7 0,16 0,1 0,3 0,5 0,3 0,5 0,6 0,0 1,0 2,1 4,0 7,0 11,0 12,0 18,-4 18,-14z"/>
  <path class="fil1" d="M238 450c0,2 -1,6 -2,11 -1,6 -1,10 -2,11 -1,1 -1,2 -2,2 -1,0 -2,0 -3,-1 -3,0 -14,0 -31,0 -4,0 -9,0 -17,0 -7,0 -13,0 -16,0 -2,0 -3,-1 -3,-3 0,-5 1,-13 1,-24 1,-11 1,-19 1,-25 0,-6 0,-16 -1,-31 0,-4 0,-10 -1,-18l0 -1c0,-1 1,-1 2,-1 4,0 9,0 16,0 8,0 13,0 17,0 3,0 9,0 16,0 7,0 12,0 16,0 3,0 4,1 4,3 1,1 1,4 2,10 0,5 0,9 0,10 0,1 0,2 -1,2 0,0 -1,0 -2,0 -13,-2 -24,-2 -35,-2 -2,0 -4,1 -5,2 0,0 0,2 0,5 0,4 1,6 2,7 0,1 2,1 4,1 1,0 2,0 3,0 2,0 3,0 4,0 6,0 12,0 18,0 1,0 2,0 4,-1 2,0 3,0 4,0 2,0 2,1 2,2 0,-1 0,2 -1,11 -1,4 -1,8 -1,12 0,1 0,1 -2,1 0,0 -2,0 -6,-1 -3,0 -10,0 -20,0l-7 0c-2,0 -3,0 -4,1 0,1 0,2 0,5 0,4 0,6 1,7 1,2 4,3 9,3 0,0 4,0 11,0 2,0 6,0 11,0 6,-1 9,-1 12,-1 1,0 2,1 2,3z"/>
  <path id="1" class="fil1" d="M333 456c0,1 -1,2 -2,3 -9,11 -21,16 -35,16 -16,0 -28,-5 -38,-16 -9,-10 -13,-22 -13,-38 0,-14 4,-27 13,-37 10,-11 22,-17 36,-17 16,0 28,5 37,15 1,1 2,2 2,3 0,1 -2,4 -5,10 -4,6 -6,9 -7,10 0,1 -1,1 -1,1 0,0 -2,-1 -4,-3 -2,-3 -5,-4 -8,-6 -3,-2 -7,-3 -12,-3 -7,0 -12,3 -17,8 -4,5 -6,12 -6,19 0,7 2,14 6,19 5,5 10,8 17,8 5,0 9,-1 13,-3 2,-1 5,-3 7,-5 2,-2 3,-3 4,-3 0,0 1,0 1,1 1,1 3,4 7,9 3,5 5,8 5,9z"/>
  <path id="2" class="fil1" d="M443 421c0,15 -5,28 -15,39 -10,10 -22,15 -38,15 -15,0 -27,-5 -37,-16 -10,-10 -15,-23 -15,-38 0,-15 5,-28 15,-38 10,-11 22,-16 37,-16 15,0 28,5 38,16 10,10 15,23 15,38zm-28 0c0,-7 -2,-14 -7,-19 -4,-5 -10,-8 -18,-8 -7,0 -12,3 -17,9 -5,5 -7,11 -7,18 0,8 2,14 6,19 5,5 11,8 18,8 7,0 13,-3 18,-9 5,-5 7,-11 7,-18z"/>
 </g>
</svg>
